<svg id="Layer_1" data-name="Layer 1" xmlns="http://www.w3.org/2000/svg" viewBox="0 0 219 225.24"><defs><style>.cls-1{fill:#fff;}</style></defs><title>Artboard 1 copy 6vectorSVG</title><path class="cls-1" d="M208.57,133.44c.15.45.17.76-.3,1a2.16,2.16,0,0,1-1.25-1.51Z"/><path class="cls-1" d="M182.81,112.91a34.75,34.75,0,0,0-.26-4.43c-.12-1.54-.26-3.08-.46-4.61s-.48-3.06-.78-4.57-.62-3-1.05-4.52-.53-2.93-1.49-4.13a13.22,13.22,0,0,0-1.31-4.27l-.92-.55.31-1A53.42,53.42,0,0,0,173,77.31l-.78-.34.24-.63c-.12-.22-.24-.45-.38-.68a73.13,73.13,0,0,0-11.85-14.77c-2.32-2.26-4.68-4.47-7-6.69-.38-.36-.8-.69-1.23-1L149.49,55a6.52,6.52,0,0,1-.73,1.17c-1.19,1.27-2.43,2.5-3.65,3.74a24.59,24.59,0,0,0-3.44,3.62c-.86.77-1.59,1.37-2.25,2-2.16,2.13-4.29,4.28-6.44,6.42-.32.33-.69.62-1.1,1-.51-.25-1-.48-1.45-.69-.07,0-.19.06-.42.14l1.22,1c.08,1,.05,1.95-.93,2.48l-.88-.27-1.08,1.08v1.48a5,5,0,0,0-1.55,1.51c-.08.12-.36.12-.64.19l-.25-.67c-.49.44-1,.86-1.47,1.33-1.44,1.41-2.86,2.85-4.29,4.27-.33.33-.7.61-1.08.94l-1.2-.27a41.34,41.34,0,0,0-4.73-1,30.15,30.15,0,0,0-12.38,1.06,4.8,4.8,0,0,1-1.07.12C95.76,81.77,91.93,78,88.12,74.19c-.11-.11-.07-.36-.1-.52,2.29-1.42,8.11-3.26,11-3.92,2.5-.56,5-.78,7.57-1.16a1.29,1.29,0,0,0,.35-.18,3.07,3.07,0,0,1,.32-1.72l.64-.07c.19.63.38,1.25.56,1.87,1.43.23,2.81-.21,4.22.08s3,.26,4.41.48a19.58,19.58,0,0,0,4,.62c.35-.61,0-.89-.31-1.13a5.28,5.28,0,0,0-4.23-1.32c-1.19-.75-2.47-.58-3.72-.65l-.15.8c-.68.14-1.26.18-1.55-.55l.5-.52c-1.44,0-2.86,0-4.27,0a40.78,40.78,0,0,0-4.42.41A42.41,42.41,0,0,0,87.86,72c-.4.23-.82.42-1.3.67-1.86-1.83-3.72-3.57-5.41-5.49-.07-.08,0-.25-.07-.49a52.73,52.73,0,0,1,9.16-4,63.16,63.16,0,0,1,20-3.37c.26-.7.4-.9.73-1l.88,1c.32-.14.78.21,1-.45l-.57-1.33a7.58,7.58,0,0,0-3.84-.52c-2.41.23-4.82.29-7.22.65a50,50,0,0,0-18.66,6.7c-.63.38-1.3.69-1.94,1l-.53.48a2.77,2.77,0,0,1-.6-.3c-1.71-1.71-3.42-3.44-5.12-5.16-.07-.08,0-.25-.07-.38,1.33-1.06,3.15-2,7.24-3.86a69.3,69.3,0,0,1,23.6-6c.06-.71.4-1.33-.21-2-1.84-.41-3.67.21-5.51.43a45.48,45.48,0,0,0-5.53,1.11c-1.82.47-3.63,1-5.4,1.65s-3.64,1.4-5.4,2.23-3.36,1.7-5,2.66-3.15,2-4.69,3a50.61,50.61,0,0,1-5.94-5.84c.31-.66,1-.86,1.56-1.19a88.49,88.49,0,0,1,20.13-8.7,82.19,82.19,0,0,1,12.25-2.43c.93-.13,1.89-.1,2.81-.25s1.89.06,2.66-.69l1,.49c.44,0,1,0,1.52,0a73.39,73.39,0,0,1,10.26.7A76.33,76.33,0,0,1,133,44.3a62.84,62.84,0,0,1,10.88,4.23,4.23,4.23,0,0,0,2.17.6c-1.24-.75-2.45-1.54-3.71-2.25a68.18,68.18,0,0,0-30.65-8.47,73.66,73.66,0,0,0-10.49.45c-.08.38-.16.76-.25,1.22l-1.14.31L99,39.14a71.31,71.31,0,0,0-8.11,1.64A64.44,64.44,0,0,0,63.27,55.64c.29.16.19.31,0,.47l.05,0a13.2,13.2,0,0,1-1,1.23c-1.09,1.09-2.21,2.16-3.32,3.23a75.77,75.77,0,0,0-7.66,8.56A76.62,76.62,0,0,0,41.7,85.63a5.77,5.77,0,0,0-.24.79c.14.64.88.91.51,1.57l-1.08-.2c-.15.36-.33.71-.47,1.07a72.36,72.36,0,0,0-3.31,12.24,44.88,44.88,0,0,0-.87,7.4c0,.12.08.24.14.39.26.3,1-.08,1,.78l-1.38,1v2.49c.06.28.61.32.48.76l-.57.88.24,1.45.88.68c.15.89-.49,1.23-.73,1.76-.07.15,0,.37,0,.55l1.35.37c.24,1.23-.71,2.12-.58,3.4l.45,1.1-.61.87a5,5,0,0,0,.48,2.23h0a6.38,6.38,0,0,0,.56,2.89l1.22-.54.37.71c-.41.42-.82.84-1.27,1.32a27.29,27.29,0,0,0,1.25,4.6,71.7,71.7,0,0,0,16.94,28.35,75,75,0,0,0,18.09,13.77c.55.3,1.22.45,1.6,1-.34,0-.68-.07-1-.13s-.56-.12-.84-.19c.13.21.23.45.41.55a73.92,73.92,0,0,0,10.87,5.16c.24.32.44.58.63.85l1.3-.19,3.44,1.36a1.51,1.51,0,0,1,.59-.08,15.44,15.44,0,0,0,3.93.69,12.46,12.46,0,0,0,4.08.91l3.43.63a12,12,0,0,1,1.28-.07c1.34,0,2.68.17,4,.19a12.51,12.51,0,0,0,1.85-.22A17.42,17.42,0,0,0,112,189a16,16,0,0,0,3.15-.32c1.11-.21,2.28-.08,3.42-.18.59-.06,1.16-.34,1.75-.45a15.86,15.86,0,0,1,2-.18c1,0,1.82-.55,2.72-.64a33,33,0,0,0,5.66-1.33,58.79,58.79,0,0,0,10.78-4.51c1.07-.54,2.14-1.11,3.27-1.7l0,.13c.78-.51,1.57-1,2.37-1.5l0-.1a21.88,21.88,0,0,1,2.14-1.3c.68-.32,1.19-1,2.11-1v.92c.46-.4.92-.82,1.35-1.26a.78.78,0,0,1,.49-.25l-.27-.64a4.82,4.82,0,0,1,1.64-1.41l1-.11c.47-1.18.89-2.23,1.34-3.38.61-.81,1.75-1.26,2.27-2.25l-.63-.7,1-.87,1.17.24.9-1.16,2.94-2.43a8.17,8.17,0,0,1,2.68-3.35,3.68,3.68,0,0,0,1.16.36c-.12-1.2-.93-2.12-1.36-3.28l1.1-.84,1.27.41.91-1.5.77-.54,2-3.79-.92-2c.8-.41,1.09.58,1.79.4a6.67,6.67,0,0,0,.41-.62,70.27,70.27,0,0,0,3.81-8.44,3.41,3.41,0,0,0,.22-2.16,2.52,2.52,0,0,1,.05-.77l1.07-1c.42-1.52.87-3,1.23-4.5s.65-2.89.91-4.34.51-3,.69-4.59.25-3.08.4-4.62S182.75,114.45,182.81,112.91Zm-73-55.51c-.26.32-.37.56-.56.66a.62.62,0,0,1-.85-.17C108.62,57.42,108.94,57.16,109.82,57.4Zm57.94,88.75a1.41,1.41,0,0,1-1.75-.61c.61-.59,1.19-.54,2,0Zm.26,1.2-.63.1c-.21-.45-.11-.67.46-.78Zm-2.62-17.07.45-.87,1.24.76a1.93,1.93,0,0,1-.35,1.72c-.22.09-.22.09-.81-.4l-1.57-.18-.27-.54C164.37,130.18,164.86,130.26,165.4,130.28ZM166,148l-.47.69-.69-.35a7.34,7.34,0,0,1,.23-.75,1.33,1.33,0,0,1,.25-.29C165.72,147.25,165.89,147.5,166,148Zm-.55-11.77.5.54C165.36,136.91,165.2,136.78,165.43,136.24Zm-2.13-8.82c.71.75.71.75-.05,2A1.86,1.86,0,0,1,163.3,127.42Zm1.1,5.8c.19.45-.34.52-.45,1.31v1.4l-.93.17a3.31,3.31,0,0,1-.09-3A1.07,1.07,0,0,1,164.4,133.22Zm-3.55-60.6-.66.85C159.85,72.74,160.14,72.8,160.85,72.62Zm-.62,72.91-1.32-.9.33-1.27a1.5,1.5,0,0,1,1.32,1.26C160.45,144.94,160.31,145.3,160.23,145.53Zm-9.57-60.37c0,.57-.35.54-.82.55C149.94,85,150.3,85.11,150.66,85.16Zm-4.57-11.54c-.41.52-.41.52-.73-.05Zm-1.39,6.59-.55.09C144.22,80,144.35,79.9,144.7,80.21Zm-1.23-14.3a1.42,1.42,0,0,1-1.1,1.46l-.54-.23C142.52,65.76,142.52,65.76,143.47,65.91Zm-3.9.7c.35-.18.71-.33,1.12-.52l.8.72-.6.54c-.39-.52-1.11,0-1.52-.4C139.45,66.81,139.48,66.66,139.57,66.61Zm.55,4.35-.07-.69h.48C140.7,70.71,140.34,70.79,140.12,71Zm.35,2.21c.56,0,1.25-.85,2.3-.34a7.42,7.42,0,0,1-2.34,1.48l-1.14-.73-1.08.31c0-.27-.07-.46-.1-.63C138.82,72.65,139.53,73.26,140.47,73.17Zm.22,3.81a1.27,1.27,0,0,1-1.36-1.14l.7-.39,1.11.85C141.15,76.78,141,77,140.69,77Zm.16,7.9c-.46.52-.46.52-.76,0ZM137.4,74c.4.29.31.51.1.78C137.07,74.53,137.21,74.31,137.4,74Zm-2,1.17c.22.17.38.31.61.5C135.31,75.83,135.31,75.83,135.39,75.21Zm-3.08-.68c.69-.35.7-.35,1.27.15l-.85.64C132.25,75.17,132.16,74.9,132.31,74.53Zm-2,5.65.54.81-.67.56-.65-1Zm-3.56,1.87-.22.94-.33-.11Zm-.57,52.23-.4.54-.55-.48C125.59,134,125.87,134,126.19,134.28ZM120.6,87.76c-.14.37-.25.65-.34.87-.53.15-.7-.1-.8-.45C119.61,87.78,119.83,87.48,120.6,87.76Zm-26.81-3.1.13.33-.85.14ZM91.7,101.92c.3.09.53.09.66.21a3.49,3.49,0,0,1,.47.68l-.49.62A1.14,1.14,0,0,1,91.7,101.92Zm1,15.8c-.26.27-.51.17-.6-.06s.09-.43.43-.38C92.61,117.42,92.68,117.58,92.73,117.72Zm-2.9-1.22.73,1.65-1-.46C89.29,117.18,89.31,116.82,89.83,116.5ZM88.08,96.19c.69.45.69.45,1.1,1.31l-.62.24C87.94,97,87.94,97,88.08,96.19Zm-.91,13.72c.44-.61.44-.61,1.21,0l-.31.56C87.5,110.3,87.5,110.3,87.17,109.91Zm-.27,13a1.67,1.67,0,0,1-.58-1.91C87.28,121.42,87.36,121.69,86.9,122.91Zm.42-21.35,1,1-.78.66C86.81,102.77,86.81,102.77,87.32,101.56Zm-.33,3.1a.56.56,0,0,1,.37.07s.08.09.12.14,0,.15,0,.19-.22.23-.27.21a1.16,1.16,0,0,1-.39-.34S86.9,104.69,87,104.66Zm-.17-10c.1.52-.12.71-.77.61C86.06,94.57,86.28,94.38,86.82,94.62Zm-5,5.89c-1-.25-1.37-.59-1.55-1.55A2.14,2.14,0,0,1,81.81,100.51Zm-22.72-2.3c-.14.52-.14.52-.83-.06ZM57.38,95.5l.49.28c-.1.43-.34.31-.63.21Zm-3.3,3.78-.51-.51C54.13,98.56,54.26,98.71,54.08,99.28ZM53.32,113c-.28,0-.48-.13-.36-.44a.3.3,0,0,1,.3-.11C53.52,112.6,53.57,112.8,53.32,113Zm-.84-15.15.64.36c-.25.52-.58.5-1.22.26Zm-.72,1.95a1.17,1.17,0,0,1,1.59.44c0,.07,0,.15-.05.17a1.65,1.65,0,0,1-2,.14Zm-.44,15-.43-.35.2-.51a.64.64,0,0,1,.91.1C52.1,114.55,51.8,114.72,51.32,114.79Zm-.4-21.45c.26.26.39.53.09.84a.44.44,0,0,1-.55-.39C50.4,93.47,50.61,93.33,50.92,93.34ZM47.24,112c.15-.21.31-.41.48-.63l1.19.17.5-1.13a2,2,0,0,1,2.36.68.78.78,0,0,1-.5.85c-.48.22-1,.36-1.61.57l-1.08.87a1.55,1.55,0,0,1-1.34-1.13C47.24,112.1,47.21,112,47.24,112Zm-1.63-2.28.23.4c-.11,0-.23.13-.32.11s-.12-.17-.17-.26ZM42.7,98.9c.46-.45.72-.27,1,.2l-.45.52C42.81,99.46,42.66,99.22,42.7,98.9Zm.89,3.3L45.1,102c0,.11.06.26,0,.33-.45.57-.91,1.12-1.38,1.67-.07.09-.23.1-.35.14a3.89,3.89,0,0,1-1.11-2.69Zm.08,10.59c-.2.42-.46.39-.86.1l.39-.54Zm-1.25,6.92c.22.32.48.62.76,1l1.91-.4c.7.74.34,1.72.74,2.46a9.67,9.67,0,0,1-1.32,0,8.77,8.77,0,0,1-.94-.33,4,4,0,0,0-.78-.08c-.61-.57-1.21-1.1-1.78-1.66a1.91,1.91,0,0,1-.3-.52,1.54,1.54,0,0,1,1-1.34C42.26,118.89,42.21,119.4,42.42,119.71Zm1,3.65-.77.27c0-.31.06-.51.1-.93Zm-3.23-18,1.26.63-.24.92C39.92,106.35,39.92,106.35,40.23,105.33Zm-.7,7.07a1.8,1.8,0,0,1,1.29.84l-1,2.15a1.55,1.55,0,0,1-2.14-.57C37.9,113.68,38.79,113.08,39.53,112.4Zm.16,9.87-.49,0,0-.16.44-.18Zm0,2.93a3.17,3.17,0,0,1-2.24,2l-.17-.6c.74-.77.83-2,2-2.67l.66.46A4.25,4.25,0,0,1,39.65,125.2Zm3.1,8.12-2.51-.61a2.2,2.2,0,0,1,2.89-.24C43,132.82,42.88,133,42.75,133.32Zm-.85-3.49h.51c.29.28.36.56.09.86C42.11,130.81,42.07,130.75,41.9,129.83Zm3.22,9.86c-.69-.25-.69-.27-.08-1.18l.5.53Zm.84-5.78-.85-.42a1.9,1.9,0,0,1,.43-1.89c.61.5.61.5,1,1.58Zm1-9.66c-.73,1.42-1.39,3-3.37,3.37a2,2,0,0,1-1.74-1.82A15.57,15.57,0,0,1,44,124.34a11.16,11.16,0,0,1,2.21-.55l-.32-1a3.49,3.49,0,0,1,2.35.55l-.11.6Zm4.28-5.8-1-.54c-.35.74-.33,1.58-1.32,2H47.75c-.13-.22-.3-.39-.32-.56,0-.65-.06-1.31-.08-2l-2.47-.55-.33,2.2-.51.1c-.72-.51-.71-1.37-.94-2.1a13.92,13.92,0,0,0,.6-1.48c.11-.43-.07-1,.58-1.26l1,.73c.15-.11.32-.16.34-.25a5,5,0,0,1,.16-1c.08-.2.35-.31.63-.54.21.56.36,1,.51,1.38,1.32,1.35,3.08,1.22,4.33,1.48l3.23,2c.22.47-.48.61-.56,1a4.1,4.1,0,0,0-2.13.63C51,119.52,51.39,118.94,51.23,118.45ZM54.29,114a.84.84,0,0,1,.87.6c0,.52-.29.66-.62.74C53.85,115.1,53.8,114.72,54.29,114Zm-2.66,10.72c.45-.48.86-.42,1.39,0a1.63,1.63,0,0,1-.76,1.55C51.76,125.75,51.8,125.15,51.63,124.68Zm1.76,7.86-1-.61c.82-.73.82-.73,1.66-.32C54.32,132.12,54,132.28,53.39,132.54Zm-.27-3.32c.29-.38.51-.3.68-.08s.17.47-.19.71Zm1.42-.93-.46-.32.22-.62a.75.75,0,0,1,1,0C55.4,127.91,55,128.09,54.54,128.29ZM56,134.86l.86.64C56,135.72,56.06,135.42,56,134.86ZM59.41,131l-.66-.58a3.85,3.85,0,0,1,.75.27S59.45,130.91,59.41,131Zm16.81,48.39a.7.7,0,0,1,.7.36C76.63,179.75,76.31,179.8,76.22,179.41Zm63.81.79a16,16,0,0,1-1.49.75c-1.44.57-2.88,1.14-4.35,1.63a3.26,3.26,0,0,0-2,1.33l-1.3-.24a77.42,77.42,0,0,1-19,3.12l-.81.75a2.35,2.35,0,0,1-1.71-.74A65.3,65.3,0,0,1,98.42,186c-.63.31-.22,1.44-1.37,1.44L96.5,187v-1c-.12-.1-.21-.23-.32-.26-2.83-.61-5.69-1.07-8.47-1.84s-5.6-1.89-8.39-2.87a3.29,3.29,0,0,1-.66-.49A25.63,25.63,0,0,1,79,175c-.08-.55-.22-1.27-.27-2a13.47,13.47,0,0,1,.11-1.69,4,4,0,0,1,.85.26,59,59,0,0,0,7.73,3.92,8.52,8.52,0,0,1,1.4,1,3.63,3.63,0,0,1,2.2.31,52.39,52.39,0,0,0,10.41,2.39,55,55,0,0,0,11.69.42l0-.92c.82-.36.72.59,1.27.84a60.26,60.26,0,0,0,24.4-7l.71.17.64.14C140.13,175.33,140.14,177.74,140,180.2Zm-30-1.3c.4-.79.4-.79,1.26-.52C110.77,179.2,110.77,179.19,110,178.9Zm30.65-24.34c0-.4.34-.42.59-.74C141.29,154.63,141.29,154.63,140.64,154.56Zm3-.63c-.33-.31-.32-.36.39-1.26l.49.71C144.12,153.87,144.12,153.87,143.6,153.93Zm.7,15.1c0-.52.09-.76.49-.81C145,168.64,144.79,168.83,144.3,169Zm.47-3.18c-.56-.19-.59-.36-.23-1.29.5-.28.68-.09.84,1Zm.36-3.25c1.06-.24,1.06-.24,1.79.92C145.84,163.84,145.53,163.2,145.13,162.6Zm1-11.49.63,0,.12.67C146.24,151.86,146.17,151.52,146.16,151.11Zm1.31,5.41c.47-.05.63.22.66.61C147.49,157.1,147.49,157.09,147.47,156.52Zm1.06-9.46,3.45,1,.47.7-1.12.89-1.65-.92-1,.74C147.85,148.72,148.09,148,148.53,147.06Zm4.09-6.46.92-.1c.29,0,.54-.41.9-.09-.36.62-1.05.59-1.49.89A.56.56,0,0,1,152.62,140.6Zm.18,24.24a1,1,0,0,1,0,1.33,1.38,1.38,0,0,1-1.31.84C151.65,166,151.75,165.18,152.8,164.84Zm1.66-6.77s.1.09.17.17a1.46,1.46,0,0,1-1.36,1.22l-.27-.52A1.76,1.76,0,0,1,154.46,158.07Zm-.61-4.63.65-.65.44.86C154.41,154.12,154.18,153.83,153.85,153.44ZM149.2,175.6c-.51-.15-.56-.44-.31-1C149.46,175,149.48,175.29,149.2,175.6Zm1.92-21.68c-.73-.08-.83-.61-1.13-.95a12,12,0,0,0-1-.89,2.61,2.61,0,0,1,2.18-1.4c.5.48.08.91,0,1.33l.58,1.31Zm.34,20.18a.68.68,0,0,1,.73-.33A.73.73,0,0,1,151.46,174.1Zm3.48-1.33c-.47.13-1,.23-1.46.4a12.42,12.42,0,0,0-1.18.52,6.28,6.28,0,0,1,.31-.57,4.36,4.36,0,0,1,.42-.48c-.08-.43-.17-.87-.26-1.32.75-.46,1.47.05,2.09-.24A1.62,1.62,0,0,1,154.94,172.77Zm-.19-22.34a2.36,2.36,0,0,1-2,.19,2.51,2.51,0,0,1,.4-.69,4.66,4.66,0,0,1,2.62-1.08A2.07,2.07,0,0,1,154.75,150.43ZM154.69,137l.85.64-.31.44C154.74,137.81,154.73,137.39,154.69,137Zm-.27-.58.19.52h0a1.47,1.47,0,0,0-.34.37,12,12,0,0,1-1.24,2.21,4.3,4.3,0,0,0-.44,1.08,3.36,3.36,0,0,0-.55.51c-.81,1.16-1.59,2.32-2.49,3.64-.05.34-.12.86-.19,1.4l-1.41.5c-.68,1.07-2,1.74-2.32,3.19l.48,1.28-.7.62a2.43,2.43,0,0,1-1.71-.89c-.93.78-1.52,2-3,2.3a3.6,3.6,0,0,0-.65,2.52c0,1.27,0,2.54,0,3.75-5.37,3.63-15.51,7.91-27.25,8.84l-.43.43-.83-.39c-2.46-.06-4.89-.11-7.31-.18a8.17,8.17,0,0,1-3.73-.87,9.85,9.85,0,0,1-3.37-.16,70.92,70.92,0,0,1-13-4.12l-.94-.37c-.05,0-.12,0-.31,0A9.51,9.51,0,0,0,84.78,164c.62.39,1.34.65,1.59,1.42.08,0,.15.09.19.07a1.44,1.44,0,0,1,1.35.21c1.33.78,2.87,1.12,4.15,2,0,0,0,.12.06.18-.72.59-1.81.51-2.42,1.33.38.44.74-.09,1.06,0,.73.06,1.34.79,2.22.24l-.25-1.22C93.8,168,93.8,168,98,169.38l.61.78.33-.49a4.24,4.24,0,0,1,.94,0c4.72,1,9.5.9,14.28.72a5,5,0,0,0,2.7-.69l.88.26,3.33-.67.69-1.23,1.26.76a35.87,35.87,0,0,0,5.9-1.9c1.86-.78,3.71-1.6,5.49-2.55s3.55-2.11,5.46-3.27c.43,1.75.1,3.35.22,4.8l-.63,1,.55.54V170a9.75,9.75,0,0,1-3.06,1.63,80.58,80.58,0,0,1-8.13,3,72.56,72.56,0,0,1-12.65,2.48c-2,.2-3.89.32-5.84.34-.39,0-.79,0-1.19-.08,0-.4-.07-.71-.13-1.24l-.69,1.17c-1.16.48-2.57-.36-3.6.67a5.53,5.53,0,0,0-3-.86A61.47,61.47,0,0,1,93,175.64a71.24,71.24,0,0,1-12.79-4.3c-.43-.19-.84-.41-1.22-.6a12.72,12.72,0,0,1-.2-5.25c.39-.65,1.34-.9,1.39-1.82-.41.12-.77.55-1.36.18a26.76,26.76,0,0,1-.16-4.92c0-1.6,0-3.21,0-4.85-.55-.48-1-.93-1.56-1.35a50.07,50.07,0,0,1-12.46-15.15c-.67-1.24-1.27-2.51-1.9-3.77l-1.08.48c-.58-.11-.64-.5-.65-1.24l1-.74a54.88,54.88,0,0,0-1.73-5.52l-.91.27c-.81-.18-.81-1-1.28-1.49l-3.58-2.08-1.69-.37c-.08-.32-.29-.66-.22-.93a5.76,5.76,0,0,1,1.28-3c.54.23,1.2.28,1.52,1l-1.38,1.72L54.9,123l1.28-1.5c.35.63.64,1.15.88,1.56a4.31,4.31,0,0,0,2.65,1c-.35-.75-.61-1.28-.93-2l.4-1c0-.63-.12-1.43-.19-2.21l-.74-.5-.71,1.24c-.6-.23-.6-.73-.75-1.23l.26-1.1-.63-.93,1.8-1a5.17,5.17,0,0,0,.45-1c.22-1-.4-1.8-.53-2.77-.64-.58-1.31-1.13-1.93-1.75s-.78-1.12-.31-2.44a4.58,4.58,0,0,1,2.83,1c.13-.06.22-.09.23-.12.07-.52.13-1,.2-1.55l-2.32-1.38-2,.62-.62.88c-.13-.06-.29-.07-.35-.16a1.67,1.67,0,0,1,.2-2.28h1.56a3.33,3.33,0,0,1,.51-.55,4,4,0,0,1,.76-.3,3.53,3.53,0,0,0-.28-3.43l.67-.78,1.09.55c-.08.45-.14.84-.23,1.36l1.05,1.81a2.25,2.25,0,0,0,.92-2.79c.69-.91,1.48-1.8.74-3.12l.94-.7c.29-.7.65-1.5.95-2.32.42-1.12,1.28-2,1.6-3.2.14-.53.72-1,1.2-1.55,0-1.35.92-2.42,1.81-3.57A32.83,32.83,0,0,1,71,89.36c.3.29.35.84.52,1.27l.58,0c1.28.47,1.63,1.89,2.69,2.63a24.34,24.34,0,0,1,2.62,2.45L77,97l1,.93c0-.4.07-.62.1-.85.47-.41.68,0,1,.38-.11.37-.23.8-.38,1.32l1.6,2.11.26,1.52h.75c.21-.62.41-1.23.62-1.84l.64.36c0,.19.09.34.05.44a33.28,33.28,0,0,0-2.08,6.51l-.92.66.62,1a31.07,31.07,0,0,0-.23,6.21h1c.14.1.29.16.34.27.33.65.63,1.31,1,2.09-.77.14-1.19-.6-1.8-.39-.37.49-.18,1-.08,1.55a29.47,29.47,0,0,0,6.26,13.4,29.1,29.1,0,0,0,16.79,10.12,29.53,29.53,0,0,0,35.05-23.29,30,30,0,0,0-1.66-16.85c-.2-.49-.39-1-.57-1.42a1.77,1.77,0,0,1,.08-.28.61.61,0,0,1,.09-.18l14-14a9.45,9.45,0,0,1,.76-.66.53.53,0,0,1,.19-.06c.61,0,.65.58,1,.93l-.86,1.17c.07.19.13.36.25.65l1.14-.65a3.53,3.53,0,0,1,.48.53c.56,1.05,1.08,2.13,1.65,3.18a31.42,31.42,0,0,1,1.55,3.51c.45,1.12.86,2.26,1.21,3.42a50.64,50.64,0,0,1,2.28,14.1,49.9,49.9,0,0,1-1.67,14c-.09.33-.14.66-.22,1l1.27,1.6a1.06,1.06,0,0,1-.75,1c-.44.16-.9.25-1.51.41a15,15,0,0,0-1.35,3.85ZM158,145l-.38.29s-.12-.12-.1-.15a3.66,3.66,0,0,1,.22-.45Zm-1.8-5.59.74.21c-.13.26-.21.43-.34.68l-.75-.23Zm.6,19.5.31.63h-.92C156.46,159.23,156.61,159.08,156.81,158.88Zm1.66.44c-.24-.26-.4-.43-.58-.64l.57-.7.72.57Zm1.76-9.73a3.75,3.75,0,0,1-1.55,1.53,1.81,1.81,0,0,1-.57,0c-1-2.56-.91-3.13.72-4.38l2,1.42C161.06,148.86,160.53,149.18,160.23,149.59Zm2.07-2.93c-.28-.27-.54-.57-.91-1l.6-.68,1.33.72v1.9l-.39.2C162.24,147.65,162.63,147,162.3,146.66Zm1.33,11.7-.48-.22c.13-.67.51-.69,1-.49C164.28,158.11,163.93,158.19,163.63,158.36Zm.71-14.18c-.48-.16-1-.35-1.4-.52-.25-.64-.39-1.19.48-1.54.44.62.89,1.26,1.35,1.93C164.56,144.12,164.43,144.22,164.34,144.18Zm3.59,6.71-1.3.45c-.24.64-.52,1.37-.8,2.13-.9-.3-.9-1.08-1.12-1.71a3,3,0,0,1,2.9-2.36,5.11,5.11,0,0,1,.47.42,1.9,1.9,0,0,1,.16.44Zm.58-27.26-.49-.15,0-.41c.19-.22.42-.31.64-.08S168.8,123.44,168.51,123.63ZM181.2,111c.15.17.29.35.54.65-.33,0-.56.1-.67,0S180.85,111.29,181.2,111Zm-3.76,6.22c-.54.32-.54.32-.83-.32C177.06,116.6,177.3,116.8,177.44,117.26Zm-1.13-20.19.19.56h-.92Zm-.71,32.85-.8.43-.11-.47C174.94,129.6,175.21,129.56,175.6,129.92ZM174,101.44c-.29-.13-.37-.36-.06-.64l.56.42C174.24,101.33,174.06,101.48,174,101.44Zm.07,18.65-.16.49a2.26,2.26,0,0,1-.47-.22c-.08-.06-.09-.22-.26-.7Zm-.8-38.43.9.82-.41.59-.73-.35Zm-3,38.41c.08.16.15.31.34.68C169.83,120.52,169.83,120.52,170.24,120.07Zm.88,12.41c-.26,1-.26,1-1.11,1.14C170.16,132.8,170.16,132.8,171.12,132.48Zm-.63,10.46c-.7.1-.77,0-1-.86a1.74,1.74,0,0,1,.35-.42,4.63,4.63,0,0,1,.74-.37l.9.62Zm.91-17.32c-.35-.19-.39-.48-.23-.92l.65-.38q.27.36.42.6C172.11,125.42,171.91,125.73,171.4,125.62Zm1,11.71a3.24,3.24,0,0,1-.64-.36,2.45,2.45,0,0,1,0-2h.42a3.32,3.32,0,0,1,1,2.27A2.65,2.65,0,0,1,172.43,137.33Zm2.24,8.81c-.75-.22-1.07-.82-1.5-1.42l.15-.67c.21,0,.39,0,.45.08a16.36,16.36,0,0,1,1,1.46C174.84,145.71,174.71,145.94,174.67,146.14Zm.08-7.24c-.37-.34-.47-.64,0-1.09l.56.91Zm1.27-6.22c-.47-.16-.77-.26-1.05-.34v-.48a.93.93,0,0,1,1.31.09Zm.34-5.72-.6-.39.36-.72.84.31Zm.66-6.3.52-.24a1.67,1.67,0,0,1,.52.25,4.29,4.29,0,0,1,.5.68l-.78.52C177.1,121.65,176.76,121.35,177,120.66Zm.53,8.57c-.09,0-.14-.17-.21-.26l.25-.22.32.39C177.79,129.17,177.66,129.25,177.55,129.23Zm.65,2.29c0,.08-.22.1-.33.15s-.15-.2-.15-.3a.23.23,0,0,1,.39-.18A.39.39,0,0,1,178.2,131.52Zm.32,2.56c-.05-.1-.16-.22-.13-.31s.17-.13.26-.2l.23.25Zm-.39-8c-.3-.5-.57-.94-.9-1.47l.78-.64a1.38,1.38,0,0,1,1.25,1C179.23,125.57,179,126,178.13,126.05Zm2.15-1-.5-.45c.09-.41.32-.59.57-.43S180.61,124.74,180.28,125.07Zm.35-8-.13-.6c.48-.32.71-.17.8.43Zm.4,3.5c.12-.41.18-.65.27-1l.72-.09C182.1,120.23,181.82,120.49,181,120.61Z"/><path class="cls-1" d="M103.87,58.93a2.08,2.08,0,0,1,.3.13c-.06.07-.13.19-.2.2s-.14-.12-.2-.19S103.85,58.93,103.87,58.93Z"/><path class="cls-1" d="M167.17,82.86c.05,0,.08,0,.12.08l-.14.06-.12-.08C167.08,82.89,167.13,82.85,167.17,82.86Z"/><path class="cls-1" d="M151.58,70.53s.1,0,.1,0a.53.53,0,0,1,0,.17s-.1,0-.1-.06A.42.42,0,0,1,151.58,70.53Z"/><polygon class="cls-1" points="148.41 72.8 148.4 72.91 148.28 72.84 148.41 72.8"/><path class="cls-1" d="M144.1,80.34c0,.28-.1.4-.37.38C143.7,80.44,143.84,80.33,144.1,80.34Z"/><path class="cls-1" d="M143.7,80.75l-.1.27-.16-.16Z"/><path class="cls-1" d="M143,75.74h-.45v-.17l.45,0Z"/><path class="cls-1" d="M137.14,70.62v.17s-.12,0-.13,0a.67.67,0,0,1-.06-.15Z"/><path class="cls-1" d="M133.87,74.8l-.16.13-.06-.22Z"/><path class="cls-1" d="M130.5,78.79h.18v.57h-.18Z"/><path class="cls-1" d="M83.13,81.64s.06.07.09.11-.12.08-.13.06a.53.53,0,0,1-.11-.15S83.09,81.62,83.13,81.64Z"/><path class="cls-1" d="M81.26,68.68l.43,0a.57.57,0,0,1,0,.13h-.43Z"/><polygon class="cls-1" points="69.57 82.13 69.5 82.25 69.46 82.12 69.57 82.13"/><polygon class="cls-1" points="150 78.17 150.07 78.07 149.96 78.06 150 78.17"/><polygon class="cls-1" points="147.48 71.2 147.57 71.27 147.59 71.17 147.48 71.2"/><polygon class="cls-1" points="135.81 71.3 135.88 71.2 135.78 71.19 135.81 71.3"/><path class="cls-1" d="M152.68,205.22a33.66,33.66,0,0,1-5.23,2.41l-1-.3-.59.94a95.44,95.44,0,0,1-10.46,3.42A90.66,90.66,0,0,1,124.32,214a69.86,69.86,0,0,1-12.59,1l.37-1.13-.34-.88.9.09c.42-.41.48-.75,0-1.18l-.93.44.07.69-1.06.33a3.1,3.1,0,0,1-.12,1.69l-1.25-.7c-.13.2-.25.4-.38.59a2.65,2.65,0,0,1-1.91-.15c-1,.08-1.68.2-2.41.21a58.56,58.56,0,0,1-8-.7l-4.38-.59.08-.92-.66-.6-1,1.18c-1-.18-2-.35-3-.59a102.42,102.42,0,0,1-43.07-21.21c-.84-.68-1.66-1.38-2.45-2.11a12.58,12.58,0,0,1-1-1.14,9,9,0,0,1-1.13-.8,96.11,96.11,0,0,1-8.86-9.41,100.72,100.72,0,0,1-14.72-24,8.26,8.26,0,0,1-1.08-3.21,7.07,7.07,0,0,1-1.21-2.73,93.54,93.54,0,0,1-4.55-16.92,100.71,100.71,0,0,1-1.23-24.76,94.65,94.65,0,0,1,3.36-19.26A102.64,102.64,0,0,1,31.9,48.8,100.15,100.15,0,0,1,55.51,28.1,6.38,6.38,0,0,1,58,26.84c1-.65,1.71-1.23,2.53-1.68A100.28,100.28,0,0,1,88.38,14.8,108.79,108.79,0,0,1,100.54,13a77.76,77.76,0,0,1,9.28-.38c3.43.08,6.86.24,10.28.59A98.8,98.8,0,0,1,145,19,101.06,101.06,0,0,1,206,83.71a97.14,97.14,0,0,1,3.63,16.34c.37,2.8.63,5.61.82,8.43.15,2.36.29,4.71.24,7.07,0,.33,0,.67,0,.87-.3.67-1.25.59-1.18,1.57l.89.66c.3,1.48-.31,3-.07,4.6l-.7.36c-.18-1-1.13-1-1.79-1.33l-1.36.81c-.24.71-.1,1.15.62,1.4l1.34-.94h1.24l.19,1.22-.55,1.21.49,1c-.14,1-.28,2.07-.42,3.16l-2.31.89-1.33,2.55.51,1.08.84.18.15,1.28.77.05,0,0c.17,1.18-.4,2.22-.58,3.32l-1.94.86,1.21,1c.26.73-.35,1.09-.72,1.59a7.59,7.59,0,0,1-.64,3.51,44.38,44.38,0,0,1-1.88,4.83l-1.32.38c-.31.76.51,1,.57,1.7l-2.3,4.94a1.67,1.67,0,0,1-.28.53,4,4,0,0,0-1.15,2.27l-.8.23-.92-.41c-.13,0-.29.07-.37.16-.38.44-.74.9-1.19,1.45l.37,1.75a.52.52,0,0,0,.75-.25c.39-.6.53-1.36,1.19-1.9,0,1-.75,2.39-2.33,4.54-.37-.09-.57-.62-1-.41-.37.6.43.73.48,1.36l-.43.87a1.67,1.67,0,0,1-.4.13c-.53,0-1.06,0-1.59-.05-.21-.36-.15-.9-.75-1.1a.65.65,0,0,0,.24,1.1l.56,0c.22.54.45,1.08.72,1.72l-1,1.58c-.6.1-.41-.44-.63-.6l-.84-.62-.73.72c.05,1.19.91,2.36-.11,3.48-.69-1-.69-1-.55-2.07-.32-.46-.4-1.16-1.16-1.24-.75,2.06-.75,2.06-2.41,3.39-.47-.63,0-1.48-.63-2.22-.59-.47-1.91-.28-2.18-1.65l.78-.55,1.16.93.63-.18-.46-.89c.18-.63.78-.41,1.24-.61a2.86,2.86,0,0,0,1.1-1.75c-.08-.79-.82-.84-1.25-1.22l-.4-.78.34-.77.46.35.58-.1,1,.6.84-.47c.67.37,1.33.92,2.2.38l-.33-1.31c.33-1.2,1.91-1.64,1.77-3-.33-.26-.53,0-.76.08s-.48.21-.78.34l-.47-1.37-.58-.2.06.07,1-2c.27.74.46,1.26.67,1.82a3.54,3.54,0,0,0,.57-.23,4.15,4.15,0,0,0,.46-.54l-.55-1.94,1-.64-.6-1.17.25-.38.83,1h.94c.74-.52.74-1.33,1.11-1.84-.22-.69-.52-1.05-1.16-.93-.08.14-.19.24-.2.36a5.21,5.21,0,0,0,0,.79l0-.05-.52-.16c-.57-.66,0-1.34-.15-2s-.24-1.12-.38-1.76l.59.09c.19,0,.37.1.63.17l1.87-4-.05-.05.51,1.12,1.62,1.42c.47-.19.42-.54.3-.83a12.86,12.86,0,0,0-.72-1.26c0-.41.07-.87.12-1.4l-1.32-.54.53-1.49,1.26.2.52-.59-1.13-1.56.41-1.25c.75-.34,1.63-.44,1.94-1.48l-.35-.79-.85-.08.05.05a48.27,48.27,0,0,1,1.22-5.62c.7-.39,1.78.07,1.95-1.21l-1.6-.09,0,.05c.16-1.4.32-2.8.48-4.16l.54-.76-.17-1,2.39.38.53.89,1.63-.1,1.94,1c.45-.19.29-.53.17-.81a2.12,2.12,0,0,0-1.36-1.13c-.75-.26-1.5-.55-2.34-.86l-.47.33a19.87,19.87,0,0,1-2.16-1.83c0-1.23.07-2.5.13-3.77s.2-2.42.24-3.63,0-2.56,0-3.84-.35-2.41.31-3.66l-.5-.77c-.17-1.51-.34-3-.5-4.59A89.88,89.88,0,0,0,195.53,78,93.11,93.11,0,0,0,133,23.61a99.29,99.29,0,0,0-11.46-2.29c-1.87-.27-3.76-.35-5.63-.52a80.72,80.72,0,0,0-8.08-.32,7.62,7.62,0,0,1-1.38-.18,25,25,0,0,1-2.72.44,91.73,91.73,0,0,0-38,10.62A89.21,89.21,0,0,0,46.21,45.25,94.12,94.12,0,0,0,19.83,87.86a87.11,87.11,0,0,0-3,14.55l.61.42-.69.85a17.77,17.77,0,0,0-.3,1.91c-.15,3.3-.54,6.59-.38,9.89.12,2.49.39,5,.49,7.46a36.46,36.46,0,0,0,.57,5.12,55.29,55.29,0,0,0,1.32,6.29c.38,1.21.4,2.46.83,3.65s.68,2.32,1,3.46l-1.08,1h1.42l.25,1.43a16.6,16.6,0,0,1,.75,1.52,92.63,92.63,0,0,0,14.84,26.47,89.27,89.27,0,0,0,14.24,14.25c1.42,1.12,2.76,2.35,4.19,3.46.73.57,1.6,1,2.39,1.46l4.53,2.91h1.62c.66-.43,1.16-.84,1-1.72h-1l-.19-.51c.4-.62.4-.62,1-.86,1.23,2.42,1.23,2.42.22,4.5.44.28.88.56,1.33.83l1.47.85-1,1.13c1.09.57,2,0,2.89-.17.27.09.46.14.65.22l5.46,2.43.11,1.26L76.49,203l1.06-1.39c3.64,1.21,7.29,2.33,11,3.18a90.85,90.85,0,0,0,11.45,1.9l1.45.7,1.08,1.66,1.72-1.11.24-.82,11.45-.09.92-.6c1.88.57,3.73,0,5.7-.15.64.44.85,1.64,2,1.56.14-.71-.65-1-.65-1.73l.41-.58a5.87,5.87,0,0,0,1.39.19c.8-.1,1.57-.32,2.36-.49l.3-.84c.63,0,.94-.56,1.49-.94l.57.81,1.2.19A6.84,6.84,0,0,0,135,203c1.9.31,3.43-.71,5-1.06l1.37-1.32.47.52a30.14,30.14,0,0,0,4.86-1.88,14.37,14.37,0,0,1,5-1.52l.65,1.31a3.4,3.4,0,0,1,1.22.35c.34.26.58.53,1.09.29a5.45,5.45,0,0,0,1.19.91,6.35,6.35,0,0,0,1.58.23l1.68.28.41-.85-.86-1-1.3.23-3.44-1-.47-2.26a1.35,1.35,0,0,1,.24-.34c.39-.25.79-.48,1.29-.79.06.82-.29,1.68.78,2,1.29-.48,1.57-1.89,2.58-2.78l-.64-.64c.28-.64,1-.47,1.51-.66,1.15-1.51,2.89-2.28,4.57-3.53l-.2,1.06.49.45c2-1,2.22-1.37,2-3.06a10.57,10.57,0,0,0,1.48-1.58,12.19,12.19,0,0,0,.86-2.14l.8.62h1.88l.24-1.3.9.16c.67-.35.36-1,.52-1.58l.55-.65.71,1.57,1.52,1,.56,2.39,1.3.19c.05-.68.1-1.25.15-1.93l1.61-.8a4.28,4.28,0,0,0-.2-.77,7.73,7.73,0,0,0-.42-.71l.27-.63,1.51.55c.51-.54,1-1.07,1.49-1.56a2.06,2.06,0,0,1,1.31,1.74c-.32.4-.6-.07-1.11,0l-.82.79.66,1a32.26,32.26,0,0,1-3.44,3.37l-2.53-.21-.91,1,1.43,1-1,1-1-.14c-.59.26-.21.89-.45,1.33L169.85,195l-1.09-.19c-.43.25-.31.58-.17,1a26.38,26.38,0,0,1-4.25,3l0,.06c-.05-.19,0-.49-.15-.55a3.11,3.11,0,0,1-1.33-1.66c0-.08-.23-.07-.41-.12-.12.44-.2.9-.35,1.33,0,.14-.27.22-.41.34-.31-.43-.58-.84-1.19-.5a1.08,1.08,0,0,0,0,1.57h1l0,0a1,1,0,0,0,1.24.44l-.07-.07c-.09.16-.14.39-.28.48a69.14,69.14,0,0,1-9.75,5.22c-.16-.08-.28-.4-.59-.09Zm12.45-11.32.64-.42c-.11-.71,0-1.39-.39-1.93a.94.94,0,0,0-1,.89l.83,1.51-.12.1Zm39.23-64.23c0-.54-.38-.61-1.05-.59l-.31.35.68.63.71-.43c-.1.43-.19.87-.29,1.32.69.52,1.26.58,1.81,0a1.05,1.05,0,0,0-.32-1.51ZM147,204.48c-.19-.18-.32-.54-.87-.14l.93.07-.13,1.8,1,.72a1.34,1.34,0,0,0,.63-1.77A1.8,1.8,0,0,0,147,204.48Zm51.12-47.36c1.37.38,1.56-.86,2.29-1.23.08,0,.11-.18.15-.25l-.37-.65c0-.53.48-.92.21-1.41l-1.13-.37-.29-1.74c-.5-.6-1-.91-1.74-.41l-.84,1.8c.91.69,2.16,1.07,2.23,2.59ZM16.4,137.1a8.76,8.76,0,0,0-.87-1c-.34-.31-.78-.51-1.13-.81a11.06,11.06,0,0,1-.93-1.06c-.43,1.07.11,2-.12,2.71a1.7,1.7,0,0,0,1.53,1A1.42,1.42,0,0,0,16.4,137.1ZM161,192.65c.2,1,1.1,1.7,1.42,2.81l.68-.5-.31-.94.49-1.12a6.37,6.37,0,0,0-.37-.74c-.06-.1-.21-.14-.34-.23A1.62,1.62,0,0,0,161,192.65Zm47-76.15c-1.1-1-2.47-1.1-3.92-1.3a2.87,2.87,0,0,0,2.25,1.69C207,117,207.54,117.13,208,116.5Zm-68,91.43a2.86,2.86,0,0,0,2.78.42c0-1-.78-1.37-1.42-1.84C140.71,206.76,140.15,207.05,140.05,207.93Zm27.69-16c.52.53.88.89,1.24,1.27a2.21,2.21,0,0,0,1.08-1.7c-.24-.69-.7-.93-1.55-.72Zm3.62-2.85a1.61,1.61,0,0,0-1.12-1.33c-.56.6-1.72.45-2,1.64C169.34,189.71,170.31,189.16,171.36,189.08ZM15.13,142.71c0,.81-.31,1.51.11,2.2.37.29.72.63,1.25.37l.12-1.5C16.39,143.23,16.19,142.65,15.13,142.71Zm189.58-9.32a2.5,2.5,0,0,0-1.94.08c-.24.14-.36.48-.49.67a1,1,0,0,0,1.35.79A2.12,2.12,0,0,0,204.71,133.39Zm-2.47,5.05c0,.71,0,1.44.12,2.16a.73.73,0,0,0,.84.74c.28-.4,0-.88.11-1.32s.18-1,.27-1.47C203.23,138.05,202.89,138,202.24,138.44Zm-91.77,72.41c.91-1.64.91-1.64.73-1.84-1-.32-.65.68-1,1-.34-.07-.66-.14-1-.19,0,0-.1.07-.15.11C109.29,210.77,109.29,210.77,110.47,210.85Zm89.51-67,1.15-.36c-.19-.74-.34-1.37-.52-2.06l-.63.33Zm1.18-7.38c.74.14,1.24.64,1.85.25,0-.71-.54-.9-1-1.16a.91.91,0,0,0-1.19,0ZM206,118.85c-.55-.33-1-.64-1.55-.2-.21.74.22,1,.91,1.28l.7-.49ZM132.18,208.6l-.83,1.7a.54.54,0,0,0,0,.18c.07.12.1.29.19.33a1.88,1.88,0,0,0,.52.08c.62-1.48.68-1.74.55-2.32ZM193.46,158a.89.89,0,0,0,1.18.5l.28-.41c-.12-.51-.28-.92-.88-1a1.79,1.79,0,0,0-.4.38A1.94,1.94,0,0,0,193.46,158ZM69.86,201.23c-.32,1.42-.35,1.45-.07,1.92s.47.67.95.26A4.27,4.27,0,0,0,69.86,201.23Zm-9.27-.56.65-1.46-.49-.85-.62.37ZM201.5,148l.68.58c.71-.58.72-.57.35-1.52l-.57,0Zm-82.94,62.61.57-.72a3.25,3.25,0,0,0-.45-.67,1.3,1.3,0,0,0-.51-.2C117.73,209.63,118,210,118.56,210.64ZM56.62,192.92c-.57.58-1,1.11-.54,2.06a2.2,2.2,0,0,0,.94-1.59Zm34.31,15,1.15.29.33-1-1-.26Zm62-5.1,1.44-.53-1.32-.8-.53.54Zm-47.31,8.28c-1-.22-1-.22-1.6.55a1,1,0,0,0,1.11,0A2.38,2.38,0,0,0,105.59,211.06Zm81-41.12a5.76,5.76,0,0,0,0,1.15c0,.14.29.22.51.37l.61-.65ZM205,112.77a.78.78,0,0,0,1.28.15l.09-.39C205.88,112.13,205.49,112.35,205,112.77Zm-4.39,40.72.83-.92-.5-.79c-.25.28-.49.44-.54.65S200.46,152.89,200.59,153.49Zm-188.73-14c0,.69.29,1,1,1l.28-.57-.64-.67ZM144.47,207c.56-.6.36-.86-.16-1.11l-.56.48ZM14.86,138.73c.66.57.66.57,1.16.32A.77.77,0,0,0,14.86,138.73ZM204.38,106a.71.71,0,0,0,1.08.08l.06-.49-.88-.2ZM78.92,203.89c-.28-.57-.56-.85-1.08-.47C78,204,78.28,204.21,78.92,203.89Zm111.52-36.78c-.31.4-.31.7.26.82C191.14,167.49,190.86,167.28,190.44,167.11Zm-116,34.52c-.51.43-.51.43-.49,1,.24-.17.46-.28.64-.44a1.62,1.62,0,0,0,.23-.41Zm73-1c.21-.59.21-.59-.43-1l-.14.7ZM38.58,181.85c.32.35.55.23.72,0s.13-.46-.24-.68Zm51.09,28.92c-.06.86-.06.86.61.72C90.28,211.08,90.16,210.77,89.67,210.77Zm-36.9-22.14-.26-.29a3.64,3.64,0,0,0-.34.34s.17.23.2.22A1.76,1.76,0,0,0,52.77,188.63Zm137.72-19.38.1-.75c-.38,0-.64,0-.61.46ZM196.86,150c.16-.6.16-.6-.54-.56ZM35.1,172c-.38-.3-.59-.14-.72.27C34.79,172.62,35,172.35,35.1,172Zm169.72-36.91c-.1.06-.26.1-.29.19s.06.22.1.34l.41-.27ZM59.33,29.36l-.09.92.79-.61ZM107.65,208.9c-.4,0-.61.15-.52.5a.24.24,0,0,0,.14.12C107.62,209.55,107.7,209.36,107.65,208.9Zm-21.06-4c.6.69.6.69.82.06Zm-14.28-.29.56-.77c-.66-.29-.94-.07-1.08.44Zm75.3-2.77c-.21.55-.21.55.46.61C148.22,202,147.92,201.94,147.61,201.86ZM12.5,131.4l-.15.42.7.22Zm89.76,78.52c.57.22.62,0,.43-.45Zm32.17-5,.58.24.11-.5-.24-.18Zm36.26-18.24-.67.7.88.09Zm-97.91-164c-.26.18-.3.37,0,.57C73.07,23.08,73,22.88,72.78,22.68Z"/><polygon class="cls-1" points="94.1 15.83 94.2 15.9 94.22 15.79 94.1 15.83"/><path class="cls-1" d="M190.23,160.38l-.46.69.47,1.4c-.44.66-.24,1.64-1.05,2.33l-.82-1.27,1.11-2v-1.31l.81.19Z"/><path class="cls-1" d="M163.47,199.17c-.13.42-.5.34-.81.4l.07.07.81-.41Z"/><path class="cls-1" d="M80.65,65.37l-.39-.56c.44.19.33.42.33.6Z"/><path class="cls-1" d="M63.28,56.08a1.19,1.19,0,0,1-.1-.28s.06-.1.09-.16l-.05,0v.5Z"/><path class="cls-1" d="M126.28,78.69l-.4.42.05,0,.41-.41Z"/><path class="cls-1" d="M146.13,49.18l.13.15-.07-.2Z"/><path class="cls-1" d="M126.34,78.75l.13-.17-.19.11Z"/><path class="cls-1" d="M63.27,55.64s-8.3,8.91-9.11,9.91,1.89,2.88,1.89,2.88l3.84-2.12,3.65-2.79,1.45-3L66.21,57a4.63,4.63,0,0,0-.36-1.67l-.32-.5Z"/></svg>